Copyleft Sans-Regular.ufo
<glyph name="exclam" format="1">
  <advance width="569"/>
  <unicode hex="0021"/>
  <note>
    exclam
  </note>
  <outline>
    <contour>
      <point x="359" y="435" type="line"/>
      <point x="395" y="1409" type="line"/>
      <point x="175" y="1409" type="line"/>
      <point x="211" y="435" type="line"/>
    </contour>
    <component base="period"/>
  </outline>
</glyph>
<glyph name="quotesingle" format="1">
  <advance width="516"/>
  <unicode hex="0027"/>
  <note>
    quotesingle
  </note>
  <outline>
    <contour>
      <point x="342" y="809" type="line"/>
      <point x="366" y="1409" type="line"/>
      <point x="150" y="1409" type="line"/>
      <point x="174" y="809" type="line"/>
    </contour>
  </outline>
</glyph>
<glyph name="comma" format="1">
  <advance width="570"/>
  <unicode hex="002C"/>
  <note>
    comma
  </note>
  <outline>
    <contour>
      <point x="408" y="-83" type="curve" smooth="yes"/>
      <point x="408" y="0" type="line"/>
      <point x="290" y="0" type="line"/>
      <point x="290" y="-83" type="line" smooth="yes"/>
      <point x="290" y="-135"/>
      <point x="268" y="-157"/>
      <point x="216" y="-157" type="curve" smooth="yes"/>
      <point x="162" y="-157" type="line"/>
      <point x="162" y="-262" type="line"/>
      <point x="216" y="-262" type="line" smooth="yes"/>
      <point x="350" y="-262"/>
      <point x="408" y="-208"/>
    </contour>
    <component base="period"/>
  </outline>
</glyph>
<glyph name="period" format="1">
  <advance width="570"/>
  <unicode hex="002E"/>
  <note>
    period
  </note>
  <outline>
    <contour>
      <point x="162" y="0" type="line"/>
      <point x="408" y="0" type="line"/>
      <point x="408" y="275" type="line"/>
      <point x="162" y="275" type="line"/>
    </contour>
  </outline>
</glyph>
<glyph name="four" format="1">
  <advance width="1139"/>
  <unicode hex="0034"/>
  <note>
    four
  </note>
  <outline>
    <contour>
      <point x="881" y="319" type="line"/>
      <point x="1079" y="319" type="line"/>
      <point x="1079" y="461" type="line"/>
      <point x="881" y="461" type="line"/>
      <point x="881" y="1409" type="line"/>
      <point x="692" y="1409" type="line"/>
      <point x="47" y="459" type="line"/>
      <point x="47" y="319" type="line"/>
      <point x="711" y="319" type="line"/>
      <point x="711" y="0" type="line"/>
      <point x="881" y="0" type="line"/>
    </contour>
    <contour>
      <point x="711" y="1206" type="qcurve"/>
      <point x="711" y="461" type="line"/>
      <point x="213" y="461" type="line"/>
      <point x="229" y="481" type="line"/>
      <point x="283" y="555" type="line"/>
      <point x="644" y="1087" type="line" smooth="yes"/>
      <point x="657" y="1106"/>
      <point x="709" y="1200"/>
    </contour>
  </outline>
</glyph>
<glyph name="question" format="1">
  <advance width="1139"/>
  <unicode hex="003F"/>
  <note>
    question
  </note>
  <outline>
    <contour>
      <point x="1063" y="1032" type="curve" smooth="yes"/>
      <point x="1063" y="1281"/>
      <point x="881" y="1430"/>
      <point x="584" y="1430" type="curve" smooth="yes"/>
      <point x="299" y="1430"/>
      <point x="119" y="1284"/>
      <point x="84" y="1020" type="curve"/>
      <point x="268" y="1008" type="line"/>
      <point x="287" y="1171"/>
      <point x="399" y="1270"/>
      <point x="586" y="1270" type="curve" smooth="yes"/>
      <point x="773" y="1270"/>
      <point x="881" y="1176"/>
      <point x="881" y="1038" type="curve" smooth="yes"/>
      <point x="881" y="899"/>
      <point x="803" y="840"/>
      <point x="671" y="786" type="curve" smooth="yes"/>
      <point x="519" y="724"/>
      <point x="444" y="627"/>
      <point x="455" y="495" type="curve" smooth="yes"/>
      <point x="460" y="435" type="line"/>
      <point x="608" y="435" type="line"/>
      <point x="613" y="495" type="line" smooth="yes"/>
      <point x="620" y="576"/>
      <point x="648" y="608"/>
      <point x="727" y="641" type="curve" smooth="yes"/>
      <point x="946" y="733"/>
      <point x="1063" y="859"/>
    </contour>
    <component base="period" xOffset="249"/>
  </outline>
</glyph>
<glyph name="H" format="1">
  <advance width="1480"/>
  <unicode hex="0048"/>
  <note>
    H
  </note>
  <outline>
    <contour>
      <point x="1121" y="0" type="line"/>
      <point x="1312" y="0" type="line"/>
      <point x="1312" y="1409" type="line"/>
      <point x="1121" y="1409" type="line"/>
      <point x="1121" y="813" type="line"/>
      <point x="359" y="813" type="line"/>
      <point x="359" y="1409" type="line"/>
      <point x="168" y="1409" type="line"/>
      <point x="168" y="0" type="line"/>
      <point x="359" y="0" type="line"/>
      <point x="359" y="653" type="line"/>
      <point x="1121" y="653" type="line"/>
    </contour>
  </outline>
</glyph>
<glyph name="O" format="1">
  <advance width="1593"/>
  <unicode hex="004F"/>
  <note>
    O
  </note>
  <outline>
    <contour>
      <point x="1495" y="705" type="curve" smooth="yes"/>
      <point x="1495" y="1162"/>
      <point x="1236" y="1430"/>
      <point x="796" y="1430" type="curve" smooth="yes"/>
      <point x="356" y="1430"/>
      <point x="97" y="1162"/>
      <point x="97" y="705" type="curve" smooth="yes"/>
      <point x="97" y="248"/>
      <point x="356" y="-20"/>
      <point x="796" y="-20" type="curve" smooth="yes"/>
      <point x="1236" y="-20"/>
      <point x="1495" y="248"/>
    </contour>
    <contour>
      <point x="1301" y="705" type="curve" smooth="yes"/>
      <point x="1301" y="347"/>
      <point x="1114" y="136"/>
      <point x="796" y="136" type="curve" smooth="yes"/>
      <point x="478" y="136"/>
      <point x="291" y="347"/>
      <point x="291" y="705" type="curve" smooth="yes"/>
      <point x="291" y="1063"/>
      <point x="478" y="1274"/>
      <point x="796" y="1274" type="curve" smooth="yes"/>
      <point x="1114" y="1274"/>
      <point x="1301" y="1063"/>
    </contour>
  </outline>
</glyph>
<glyph name="Q" format="1">
  <advance width="1593"/>
  <unicode hex="0051"/>
  <note>
    Q
  </note>
  <outline>
    <contour>
      <point x="863" y="342" type="line"/>
      <point x="1466" y="-4" type="line"/>
      <point x="1541" y="126" type="line"/>
      <point x="938" y="472" type="line"/>
    </contour>
    <component base="O"/>
  </outline>
</glyph>
<glyph name="a" format="1">
  <advance width="1139"/>
  <unicode hex="0061"/>
  <note>
    a
  </note>
  <outline>
    <contour>
      <point x="428" y="-20" type="curve" smooth="yes"/>
      <point x="591" y="-20"/>
      <point x="705" y="42"/>
      <point x="797" y="207" type="curve"/>
      <point x="803" y="207" type="line"/>
      <point x="803" y="177" type="line" smooth="yes"/>
      <point x="803" y="57"/>
      <point x="868" y="-10"/>
      <point x="989" y="-10" type="curve" smooth="yes"/>
      <point x="1022" y="-10"/>
      <point x="1065" y="-5"/>
      <point x="1116" y="25" type="curve"/>
      <point x="1116" y="138" type="line"/>
      <point x="1089" y="133"/>
      <point x="1068" y="130"/>
      <point x="1051" y="130" type="curve" smooth="yes"/>
      <point x="1000" y="130"/>
      <point x="979" y="155"/>
      <point x="979" y="226" type="curve" smooth="yes"/>
      <point x="979" y="738" type="line" smooth="yes"/>
      <point x="979" y="974"/>
      <point x="841" y="1102"/>
      <point x="569" y="1102" type="curve" smooth="yes"/>
      <point x="310" y="1102"/>
      <point x="166" y="1005"/>
      <point x="135" y="810" type="curve"/>
      <point x="323" y="793" type="line"/>
      <point x="338" y="913"/>
      <point x="404" y="965"/>
      <point x="565" y="965" type="curve" smooth="yes"/>
      <point x="725" y="965"/>
      <point x="797" y="895"/>
      <point x="797" y="719" type="curve" smooth="yes"/>
      <point x="797" y="640" type="line"/>
      <point x="599" y="640" type="line" smooth="yes"/>
      <point x="246" y="640"/>
      <point x="87" y="512"/>
      <point x="87" y="289" type="curve" smooth="yes"/>
      <point x="87" y="104"/>
      <point x="197" y="-20"/>
    </contour>
    <contour>
      <point x="466" y="115" type="curve" smooth="yes"/>
      <point x="338" y="115"/>
      <point x="272" y="184"/>
      <point x="272" y="286" type="curve" smooth="yes"/>
      <point x="272" y="427"/>
      <point x="397" y="514"/>
      <point x="599" y="514" type="curve" smooth="yes"/>
      <point x="797" y="514" type="line"/>
      <point x="797" y="445" type="line" smooth="yes"/>
      <point x="797" y="263"/>
      <point x="654" y="115"/>
    </contour>
  </outline>
</glyph>
<glyph name="i" format="1">
  <advance width="455"/>
  <unicode hex="0069"/>
  <note>
    i
  </note>
  <outline>
    <contour>
      <point x="117" y="1274" type="line"/>
      <point x="337" y="1274" type="line"/>
      <point x="337" y="1484" type="line"/>
      <point x="117" y="1484" type="line"/>
    </contour>
    <contour>
      <point x="137" y="0" type="line"/>
      <point x="317" y="0" type="line"/>
      <point x="317" y="1082" type="line"/>
      <point x="137" y="1082" type="line"/>
    </contour>
  </outline>
</glyph>
<glyph name="r" format="1">
  <advance width="682"/>
  <unicode hex="0072"/>
  <note>
    r
  </note>
  <outline>
    <contour>
      <point x="142" y="0" type="line"/>
      <point x="322" y="0" type="line"/>
      <point x="322" y="564" type="line" smooth="yes"/>
      <point x="322" y="804"/>
      <point x="403" y="917"/>
      <point x="552" y="917" type="curve" smooth="yes"/>
      <point x="592" y="917"/>
      <point x="624" y="914"/>
      <point x="648" y="907" type="curve"/>
      <point x="648" y="1092" type="line"/>
      <point x="623" y="1099"/>
      <point x="599" y="1102"/>
      <point x="575" y="1102" type="curve" smooth="yes"/>
      <point x="439" y="1102"/>
      <point x="375" y="1046"/>
      <point x="318" y="861" type="curve"/>
      <point x="314" y="861" type="line"/>
      <point x="314" y="886"/>
      <point x="311" y="959"/>
      <point x="306" y="1082" type="curve"/>
      <point x="136" y="1082" type="line"/>
      <point x="140" y="990"/>
      <point x="142" y="906"/>
      <point x="142" y="830" type="curve" smooth="yes"/>
    </contour>
  </outline>
</glyph>
<glyph name="copyright" format="1">
  <advance width="1510"/>
  <unicode hex="00A9"/>
  <note>
    copyright
  </note>
  <outline>
    <contour>
      <point x="1480" y="707" type="curve" smooth="yes"/>
      <point x="1480" y="1107"/>
      <point x="1154" y="1430"/>
      <point x="755" y="1430" type="curve" smooth="yes"/>
      <point x="360" y="1430"/>
      <point x="30" y="1108"/>
      <point x="30" y="707" type="curve" smooth="yes"/>
      <point x="30" y="307"/>
      <point x="358" y="-16"/>
      <point x="755" y="-16" type="curve" smooth="yes"/>
      <point x="1155" y="-16"/>
      <point x="1480" y="307"/>
    </contour>
    <contour>
      <point x="1378" y="707" type="curve" smooth="yes"/>
      <point x="1378" y="357"/>
      <point x="1104" y="78"/>
      <point x="755" y="78" type="curve" smooth="yes"/>
      <point x="407" y="78"/>
      <point x="132" y="360"/>
      <point x="132" y="707" type="curve" smooth="yes"/>
      <point x="132" y="1050"/>
      <point x="406" y="1336"/>
      <point x="755" y="1336" type="curve" smooth="yes"/>
      <point x="1099" y="1336"/>
      <point x="1378" y="1058"/>
    </contour>
    <contour>
      <point x="499" y="709" type="curve" smooth="yes"/>
      <point x="499" y="920"/>
      <point x="592" y="1028"/>
      <point x="761" y="1028" type="curve" smooth="yes"/>
      <point x="862" y="1028"/>
      <point x="942" y="983"/>
      <point x="985" y="891" type="curve"/>
      <point x="1099" y="924" type="line"/>
      <point x="1035" y="1063"/>
      <point x="922" y="1133"/>
      <point x="759" y="1133" type="curve" smooth="yes"/>
      <point x="507" y="1133"/>
      <point x="370" y="980"/>
      <point x="370" y="709" type="curve" smooth="yes"/>
      <point x="370" y="437"/>
      <point x="515" y="279"/>
      <point x="766" y="279" type="curve" smooth="yes"/>
      <point x="922" y="279"/>
      <point x="1031" y="343"/>
      <point x="1114" y="504" type="curve"/>
      <point x="999" y="539" type="line"/>
      <point x="949" y="435"/>
      <point x="871" y="383"/>
      <point x="766" y="383" type="curve" smooth="yes"/>
      <point x="599" y="383"/>
      <point x="499" y="502"/>
    </contour>
  </outline>
</glyph>
<glyph name="florin" format="1">
  <advance width="1139"/>
  <unicode hex="0192"/>
  <note>
    florin
  </note>
  <outline>
    <contour>
      <point x="932" y="1312" type="qcurve"/>
      <point x="963" y="1434" type="line"/>
      <point x="893" y="1454"/>
      <point x="814" y="1454" type="qcurve" smooth="yes"/>
      <point x="681" y="1454"/>
      <point x="532" y="1327"/>
      <point x="501" y="1174" type="qcurve" smooth="yes"/>
      <point x="472" y="1022" type="line"/>
      <point x="321" y="1022" type="line"/>
      <point x="294" y="891" type="line"/>
      <point x="446" y="891" type="line"/>
      <point x="192" y="-434" type="line"/>
      <point x="372" y="-434" type="line"/>
      <point x="626" y="891" type="line"/>
      <point x="839" y="891" type="line"/>
      <point x="864" y="1022" type="line"/>
      <point x="653" y="1022" type="line"/>
      <point x="679" y="1159" type="line" smooth="yes"/>
      <point x="698" y="1253"/>
      <point x="762" y="1327"/>
      <point x="822" y="1327" type="qcurve" smooth="yes"/>
      <point x="881" y="1327"/>
    </contour>
  </outline>
</glyph>
<glyph name="uni0196" format="1">
  <advance width="455"/>
  <unicode hex="0196"/>
  <note>
    uni0196
  </note>
  <outline>
    <contour>
      <point x="138" y="0" type="line"/>
      <point x="318" y="0" type="line"/>
      <point x="318" y="1484" type="line"/>
      <point x="138" y="1484" type="line"/>
    </contour>
  </outline>
</glyph>
<glyph name="uni0198" format="1">
  <advance width="1366"/>
  <unicode hex="0198"/>
  <note>
    uni0198
  </note>
  <outline>
    <contour>
      <point x="1106" y="0" type="line"/>
      <point x="1343" y="0" type="line"/>
      <point x="663" y="797" type="line"/>
      <point x="1263" y="1409" type="line"/>
      <point x="1038" y="1409" type="line"/>
      <point x="359" y="703" type="line"/>
      <point x="359" y="1115" type="line" smooth="yes"/>
      <point x="359" y="1263"/>
      <point x="485" y="1263" type="qcurve" smooth="yes"/>
      <point x="542" y="1263"/>
      <point x="592" y="1245" type="qcurve"/>
      <point x="592" y="1410" type="line"/>
      <point x="526" y="1425"/>
      <point x="460" y="1425" type="qcurve" smooth="yes"/>
      <point x="320" y="1425"/>
      <point x="168" y="1272"/>
      <point x="168" y="1129" type="qcurve" smooth="yes"/>
      <point x="168" y="0" type="line"/>
      <point x="359" y="0" type="line"/>
      <point x="359" y="540" type="line"/>
      <point x="543" y="680" type="line"/>
    </contour>
  </outline>
</glyph>
<glyph name="uni021C" format="1">
  <advance width="1116"/>
  <unicode hex="021C"/>
  <note>
    uni021C
  </note>
  <outline>
    <contour>
      <point x="1017" y="360" type="qcurve" smooth="yes"/>
      <point x="1017" y="469"/>
      <point x="937" y="648"/>
      <point x="873" y="708" type="qcurve"/>
      <point x="958" y="800"/>
      <point x="1014" y="938"/>
      <point x="1014" y="1027" type="qcurve" smooth="yes"/>
      <point x="1014" y="1143"/>
      <point x="901" y="1329"/>
      <point x="694" y="1431"/>
      <point x="559" y="1431" type="qcurve" smooth="yes"/>
      <point x="391" y="1431"/>
      <point x="149" y="1300"/>
      <point x="64" y="1156" type="qcurve"/>
      <point x="217" y="1077" type="line"/>
      <point x="279" y="1185"/>
      <point x="436" y="1269"/>
      <point x="551" y="1269" type="qcurve" smooth="yes"/>
      <point x="688" y="1269"/>
      <point x="829" y="1132"/>
      <point x="829" y="998" type="qcurve" smooth="yes"/>
      <point x="829" y="831"/>
      <point x="508" y="591"/>
      <point x="135" y="477" type="qcurve"/>
      <point x="135" y="304" type="line"/>
      <point x="574" y="449"/>
      <point x="750" y="584" type="qcurve"/>
      <point x="787" y="544"/>
      <point x="829" y="412"/>
      <point x="829" y="339" type="qcurve" smooth="yes"/>
      <point x="829" y="142"/>
      <point x="479" y="-164"/>
      <point x="136" y="-261" type="qcurve"/>
      <point x="136" y="-427" type="line"/>
      <point x="1017" y="-170"/>
    </contour>
  </outline>
</glyph>
<glyph name="uni021D" format="1">
  <advance width="894"/>
  <unicode hex="021D"/>
  <note>
    uni021D
  </note>
  <outline>
    <contour>
      <point x="814" y="170" type="qcurve" smooth="yes"/>
      <point x="814" y="268"/>
      <point x="750" y="427"/>
      <point x="700" y="468" type="qcurve"/>
      <point x="814" y="595"/>
      <point x="814" y="753" type="qcurve" smooth="yes"/>
      <point x="814" y="934"/>
      <point x="627" y="1102"/>
      <point x="436" y="1102" type="qcurve" smooth="yes"/>
      <point x="315" y="1102"/>
      <point x="165" y="1046"/>
      <point x="60" y="923"/>
      <point x="33" y="825" type="qcurve"/>
      <point x="207" y="792" type="line"/>
      <point x="235" y="883"/>
      <point x="337" y="969"/>
      <point x="438" y="969" type="qcurve" smooth="yes"/>
      <point x="539" y="969"/>
      <point x="635" y="868"/>
      <point x="635" y="759" type="qcurve" smooth="yes"/>
      <point x="635" y="614"/>
      <point x="366" y="405"/>
      <point x="89" y="345" type="qcurve"/>
      <point x="89" y="197" type="line"/>
      <point x="381" y="262"/>
      <point x="561" y="366" type="qcurve"/>
      <point x="594" y="337"/>
      <point x="635" y="220"/>
      <point x="635" y="149" type="qcurve" smooth="yes"/>
      <point x="635" y="78"/>
      <point x="571" y="-40"/>
      <point x="459" y="-135"/>
      <point x="268" y="-223"/>
      <point x="89" y="-271" type="qcurve"/>
      <point x="89" y="-426" type="line"/>
      <point x="463" y="-335"/>
      <point x="814" y="-37"/>
    </contour>
  </outline>
</glyph>
<glyph name="uni0252" format="1">
  <advance width="1139"/>
  <unicode hex="0252"/>
  <note>
    uni0252
  </note>
  <outline>
    <contour>
      <point x="312" y="908" type="qcurve"/>
      <point x="308" y="908" type="line"/>
      <point x="308" y="950"/>
      <point x="301" y="1066"/>
      <point x="298" y="1082" type="qcurve"/>
      <point x="126" y="1082" type="line"/>
      <point x="132" y="1028"/>
      <point x="132" y="859" type="qcurve" smooth="yes"/>
      <point x="132" y="0" type="line"/>
      <point x="312" y="0" type="line"/>
      <point x="312" y="47" type="line"/>
      <point x="310" y="168" type="line"/>
      <point x="312" y="168" type="line"/>
      <point x="362" y="70"/>
      <point x="526" y="-20"/>
      <point x="649" y="-20" type="qcurve" smooth="yes"/>
      <point x="1047" y="-20"/>
      <point x="1047" y="546" type="qcurve" smooth="yes"/>
      <point x="1047" y="826"/>
      <point x="854" y="1102"/>
      <point x="649" y="1102" type="qcurve" smooth="yes"/>
      <point x="527" y="1102"/>
      <point x="362" y="1012"/>
    </contour>
    <contour>
      <point x="858" y="540" type="qcurve" smooth="yes"/>
      <point x="858" y="314"/>
      <point x="737" y="113"/>
      <point x="601" y="113" type="qcurve" smooth="yes"/>
      <point x="449" y="113"/>
      <point x="312" y="314"/>
      <point x="312" y="528" type="qcurve" smooth="yes"/>
      <point x="312" y="751"/>
      <point x="450" y="963"/>
      <point x="603" y="963" type="qcurve" smooth="yes"/>
      <point x="738" y="963"/>
      <point x="858" y="767"/>
    </contour>
  </outline>
</glyph>
<glyph name="uni0274" format="1">
  <advance width="1132"/>
  <unicode hex="0274"/>
  <note>
    uni0274
  </note>
  <outline>
    <contour>
      <point x="316" y="1082" type="line"/>
      <point x="142" y="1082" type="line"/>
      <point x="142" y="0" type="line"/>
      <point x="311" y="0" type="line"/>
      <point x="311" y="665" type="line" smooth="yes"/>
      <point x="311" y="730"/>
      <point x="304" y="828" type="qcurve"/>
      <point x="337" y="757"/>
      <point x="377" y="699" type="qcurve" smooth="yes"/>
      <point x="838" y="0" type="line"/>
      <point x="1005" y="0" type="line"/>
      <point x="1005" y="1082" type="line"/>
      <point x="835" y="1082" type="line"/>
      <point x="835" y="418" type="line"/>
      <point x="839" y="293" type="line"/>
      <point x="802" y="367"/>
      <point x="781" y="397" type="qcurve" smooth="yes"/>
    </contour>
  </outline>
</glyph>
<glyph name="uni0287" format="1">
  <advance width="569"/>
  <unicode hex="0287"/>
  <note>
    uni0287
  </note>
  <outline>
    <contour>
      <point x="31" y="1405" type="qcurve"/>
      <point x="31" y="1272" type="line"/>
      <point x="99" y="1286"/>
      <point x="135" y="1286" type="qcurve" smooth="yes"/>
      <point x="198" y="1286"/>
      <point x="249" y="1223"/>
      <point x="249" y="1145" type="qcurve" smooth="yes"/>
      <point x="249" y="372" type="line"/>
      <point x="49" y="372" type="line"/>
      <point x="49" y="241" type="line"/>
      <point x="249" y="241" type="line"/>
      <point x="249" y="-1" type="line"/>
      <point x="369" y="-1" type="line"/>
      <point x="422" y="241" type="line"/>
      <point x="554" y="241" type="line"/>
      <point x="554" y="372" type="line"/>
      <point x="429" y="372" type="line"/>
      <point x="429" y="1184" type="line" smooth="yes"/>
      <point x="429" y="1429"/>
      <point x="213" y="1429" type="qcurve" smooth="yes"/>
      <point x="120" y="1429"/>
    </contour>
  </outline>
</glyph>
<glyph name="uni02BC" format="1">
  <advance width="455"/>
  <unicode hex="02BC"/>
  <note>
    uni02BC
  </note>
  <outline>
    <contour>
      <point x="319" y="1484" type="line"/>
      <point x="124" y="1484" type="line"/>
      <point x="124" y="1289" type="line"/>
      <point x="213" y="1289" type="line"/>
      <point x="213" y="1164"/>
      <point x="118" y="1027" type="qcurve"/>
      <point x="239" y="1027" type="line"/>
      <point x="282" y="1094"/>
      <point x="319" y="1241"/>
      <point x="319" y="1338" type="qcurve" smooth="yes"/>
    </contour>
  </outline>
</glyph>
<glyph name="uni02D2" format="1">
  <advance width="682"/>
  <unicode hex="02D2"/>
  <note>
    uni02D2
  </note>
  <outline>
    <contour>
      <point x="246" y="177" type="qcurve"/>
      <point x="246" y="92" type="line"/>
      <point x="330" y="92"/>
      <point x="431" y="195"/>
      <point x="431" y="282" type="qcurve" smooth="yes"/>
      <point x="431" y="369"/>
      <point x="330" y="471"/>
      <point x="246" y="471" type="qcurve"/>
      <point x="246" y="386" type="line"/>
      <point x="288" y="386"/>
      <point x="343" y="331"/>
      <point x="343" y="282" type="qcurve" smooth="yes"/>
      <point x="343" y="233"/>
      <point x="288" y="177"/>
    </contour>
  </outline>
</glyph>
<glyph name="uni02D3" format="1">
  <advance width="682"/>
  <unicode hex="02D3"/>
  <note>
    uni02D3
  </note>
  <outline>
    <contour>
      <point x="435" y="92" type="qcurve"/>
      <point x="435" y="177" type="line"/>
      <point x="393" y="177"/>
      <point x="338" y="233"/>
      <point x="338" y="282" type="qcurve" smooth="yes"/>
      <point x="338" y="331"/>
      <point x="393" y="386"/>
      <point x="435" y="386" type="qcurve"/>
      <point x="435" y="471" type="line"/>
      <point x="350" y="471"/>
      <point x="250" y="369"/>
      <point x="250" y="282" type="qcurve" smooth="yes"/>
      <point x="250" y="196"/>
      <point x="350" y="92"/>
    </contour>
  </outline>
</glyph>
<glyph name="uni02D4" format="1">
  <advance width="682"/>
  <unicode hex="02D4"/>
  <note>
    uni02D4
  </note>
  <outline>
    <contour>
      <point x="520" y="173" type="line"/>
      <point x="520" y="281" type="line"/>
      <point x="397" y="281" type="line"/>
      <point x="397" y="510" type="line"/>
      <point x="284" y="510" type="line"/>
      <point x="284" y="281" type="line"/>
      <point x="161" y="281" type="line"/>
      <point x="161" y="173" type="line"/>
    </contour>
  </outline>
</glyph>
<glyph name="uni02D5" format="1">
  <advance width="682"/>
  <unicode hex="02D5"/>
  <note>
    uni02D5
  </note>
  <outline>
    <contour>
      <point x="520" y="402" type="line"/>
      <point x="520" y="510" type="line"/>
      <point x="161" y="510" type="line"/>
      <point x="161" y="402" type="line"/>
      <point x="284" y="402" type="line"/>
      <point x="284" y="173" type="line"/>
      <point x="397" y="173" type="line"/>
      <point x="397" y="402" type="line"/>
    </contour>
  </outline>
</glyph>
<glyph name="uni02D6" format="1">
  <advance width="682"/>
  <unicode hex="02D6"/>
  <note>
    uni02D6
  </note>
  <outline>
    <contour>
      <point x="520" y="288" type="line"/>
      <point x="520" y="396" type="line"/>
      <point x="397" y="396" type="line"/>
      <point x="397" y="520" type="line"/>
      <point x="284" y="520" type="line"/>
      <point x="284" y="396" type="line"/>
      <point x="161" y="396" type="line"/>
      <point x="161" y="288" type="line"/>
      <point x="284" y="288" type="line"/>
      <point x="284" y="163" type="line"/>
      <point x="397" y="163" type="line"/>
      <point x="397" y="288" type="line"/>
    </contour>
  </outline>
</glyph>
<glyph name="uni02D7" format="1">
  <advance width="682"/>
  <unicode hex="02D7"/>
  <note>
    uni02D7
  </note>
  <outline>
    <contour>
      <point x="653" y="275" type="line"/>
      <point x="653" y="416" type="line"/>
      <point x="29" y="416" type="line"/>
      <point x="29" y="275" type="line"/>
    </contour>
  </outline>
</glyph>
<glyph name="uni0312" format="1">
  <advance width="0"/>
  <unicode hex="0312"/>
  <note>
    uni0312
  </note>
  <outline>
    <contour>
      <point x="-101" y="1003" type="line"/>
      <point x="94" y="1003" type="line"/>
      <point x="94" y="1222" type="line"/>
      <point x="6" y="1222" type="line"/>
      <point x="6" y="1348"/>
      <point x="100" y="1484" type="qcurve"/>
      <point x="-23" y="1484" type="line"/>
      <point x="-63" y="1419"/>
      <point x="-101" y="1277"/>
      <point x="-101" y="1171" type="qcurve" smooth="yes"/>
    </contour>
  </outline>
</glyph>
<glyph name="uni0313" format="1">
  <advance width="0"/>
  <unicode hex="0313"/>
  <note>
    uni0313
  </note>
  <outline>
    <contour>
      <point x="100" y="1484" type="line"/>
      <point x="-95" y="1484" type="line"/>
      <point x="-95" y="1265" type="line"/>
      <point x="-7" y="1265" type="line"/>
      <point x="-7" y="1139"/>
      <point x="-101" y="1003" type="qcurve"/>
      <point x="22" y="1003" type="line"/>
      <point x="62" y="1068"/>
      <point x="100" y="1210"/>
      <point x="100" y="1316" type="qcurve" smooth="yes"/>
    </contour>
  </outline>
</glyph>
<glyph name="uni031C" format="1">
  <advance width="0"/>
  <unicode hex="031C"/>
  <note>
    uni031C
  </note>
  <outline>
    <contour>
      <point x="95" y="-425" type="qcurve"/>
      <point x="95" y="-340" type="line"/>
      <point x="53" y="-340"/>
      <point x="-2" y="-284"/>
      <point x="-2" y="-235" type="qcurve" smooth="yes"/>
      <point x="-2" y="-186"/>
      <point x="53" y="-131"/>
      <point x="95" y="-131" type="qcurve"/>
      <point x="95" y="-46" type="line"/>
      <point x="10" y="-46"/>
      <point x="-90" y="-148"/>
      <point x="-90" y="-235" type="qcurve" smooth="yes"/>
      <point x="-90" y="-321"/>
      <point x="10" y="-425"/>
    </contour>
  </outline>
</glyph>
<glyph name="commaaccent" format="1">
  <advance width="682"/>
  <unicode hex="0326"/>
  <note>
    commaaccent
  </note>
  <outline>
    <contour>
      <point x="328" y="-193" type="qcurve" smooth="yes"/>
      <point x="328" y="-98" type="line"/>
      <point x="133" y="-98" type="line"/>
      <point x="133" y="-254" type="line"/>
      <point x="221" y="-254" type="line"/>
      <point x="221" y="-300"/>
      <point x="172" y="-386"/>
      <point x="127" y="-434" type="qcurve"/>
      <point x="244" y="-434" type="line"/>
      <point x="284" y="-387"/>
      <point x="328" y="-280"/>
    </contour>
  </outline>
</glyph>
<glyph name="uni0343" format="1">
  <advance width="0"/>
  <unicode hex="0343"/>
  <note>
    uni0343
  </note>
  <outline>
    <contour>
      <point x="101" y="1484" type="line"/>
      <point x="-94" y="1484" type="line"/>
      <point x="-94" y="1289" type="line"/>
      <point x="-5" y="1289" type="line"/>
      <point x="-5" y="1164"/>
      <point x="-100" y="1027" type="qcurve"/>
      <point x="21" y="1027" type="line"/>
      <point x="64" y="1094"/>
      <point x="101" y="1241"/>
      <point x="101" y="1338" type="qcurve" smooth="yes"/>
    </contour>
  </outline>
</glyph>
<glyph name="uni0345" format="1">
  <advance width="0"/>
  <unicode hex="0345"/>
  <note>
    uni0345
  </note>
  <outline>
    <contour>
      <point x="62" y="-252" type="qcurve" smooth="yes"/>
      <point x="62" y="-127" type="line"/>
      <point x="-70" y="-127" type="line"/>
      <point x="-70" y="-273" type="line" smooth="yes"/>
      <point x="-70" y="-425"/>
      <point x="72" y="-425" type="qcurve" smooth="yes"/>
      <point x="110" y="-425"/>
      <point x="154" y="-414" type="qcurve"/>
      <point x="154" y="-302" type="line"/>
      <point x="121" y="-308"/>
      <point x="107" y="-308" type="qcurve" smooth="yes"/>
      <point x="83" y="-308"/>
      <point x="62" y="-285"/>
    </contour>
  </outline>
</glyph>
<glyph name="uni0358" format="1">
  <advance width="0"/>
  <unicode hex="0358"/>
  <note>
    uni0358
  </note>
  <outline>
    <contour>
      <point x="245" y="1286" type="qcurve" smooth="yes"/>
      <point x="245" y="1247"/>
      <point x="301" y="1191"/>
      <point x="340" y="1191" type="qcurve" smooth="yes"/>
      <point x="378" y="1191"/>
      <point x="435" y="1247"/>
      <point x="435" y="1286" type="qcurve" smooth="yes"/>
      <point x="435" y="1324"/>
      <point x="379" y="1381"/>
      <point x="340" y="1381" type="qcurve" smooth="yes"/>
      <point x="301" y="1381"/>
      <point x="245" y="1325"/>
    </contour>
  </outline>
</glyph>
<glyph name="uni035C" format="1">
  <advance width="0"/>
  <unicode hex="035C"/>
  <note>
    uni035C
  </note>
  <outline>
    <contour>
      <point x="1414" y="-54" type="qcurve"/>
      <point x="1281" y="-54" type="line"/>
      <point x="1187" y="-184"/>
      <point x="856" y="-302"/>
      <point x="620" y="-302" type="qcurve" smooth="yes"/>
      <point x="384" y="-302"/>
      <point x="54" y="-184"/>
      <point x="-40" y="-54" type="qcurve"/>
      <point x="-173" y="-54" type="line"/>
      <point x="60" y="-425"/>
      <point x="621" y="-425" type="qcurve" smooth="yes"/>
      <point x="1181" y="-425"/>
    </contour>
  </outline>
</glyph>
<glyph name="uni0361" format="1">
  <advance width="0"/>
  <unicode hex="0361"/>
  <note>
    uni0361
  </note>
  <outline>
    <contour>
      <point x="1414" y="1219" type="line"/>
      <point x="1180" y="1590"/>
      <point x="621" y="1590" type="qcurve" smooth="yes"/>
      <point x="61" y="1590"/>
      <point x="-173" y="1219" type="qcurve"/>
      <point x="-40" y="1219" type="line"/>
      <point x="54" y="1349"/>
      <point x="384" y="1467"/>
      <point x="620" y="1467" type="qcurve" smooth="yes"/>
      <point x="856" y="1467"/>
      <point x="1187" y="1349"/>
      <point x="1281" y="1219" type="qcurve"/>
    </contour>
  </outline>
</glyph>
<glyph name="uni049E" format="1">
  <advance width="1193"/>
  <unicode hex="049E"/>
  <note>
    uni049E
  </note>
  <outline>
    <contour>
      <point x="4" y="1194" type="line"/>
      <point x="4" y="1047" type="line"/>
      <point x="168" y="1047" type="line"/>
      <point x="168" y="0" type="line"/>
      <point x="359" y="0" type="line"/>
      <point x="359" y="645" type="line"/>
      <point x="398" y="645"/>
      <point x="507" y="671"/>
      <point x="532" y="683" type="qcurve"/>
      <point x="959" y="0" type="line"/>
      <point x="1181" y="0" type="line"/>
      <point x="672" y="775" type="line"/>
      <point x="720" y="810"/>
      <point x="851" y="999" type="qcurve" smooth="yes"/>
      <point x="1134" y="1409" type="line"/>
      <point x="934" y="1409" type="line"/>
      <point x="729" y="1104" type="line" smooth="yes"/>
      <point x="622" y="942"/>
      <point x="524" y="831"/>
      <point x="434" y="790"/>
      <point x="359" y="790" type="qcurve"/>
      <point x="359" y="1047" type="line"/>
      <point x="542" y="1047" type="line"/>
      <point x="542" y="1194" type="line"/>
      <point x="359" y="1194" type="line"/>
      <point x="359" y="1409" type="line"/>
      <point x="168" y="1409" type="line"/>
      <point x="168" y="1194" type="line"/>
    </contour>
  </outline>
</glyph>
<glyph name="uni0599" format="1">
  <advance width="0"/>
  <unicode hex="0599"/>
  <note>
    uni0599
  </note>
  <outline>
    <contour>
      <point x="-111" y="1358" type="qcurve"/>
      <point x="0" y="1358" type="line"/>
      <point x="0" y="1504"/>
      <point x="-174" y="1663"/>
      <point x="-328" y="1663" type="qcurve"/>
      <point x="-328" y="1554" type="line"/>
      <point x="-224" y="1554"/>
      <point x="-111" y="1450"/>
    </contour>
  </outline>
</glyph>
<glyph name="uni05A5" format="1">
  <advance width="0"/>
  <unicode hex="05A5"/>
  <note>
    uni05A5
  </note>
  <outline>
    <contour>
      <point x="178" y="-82" type="qcurve"/>
      <point x="68" y="-82" type="line"/>
      <point x="68" y="-173"/>
      <point x="-48" y="-279"/>
      <point x="-150" y="-279" type="qcurve"/>
      <point x="-150" y="-385" type="line"/>
      <point x="7" y="-385"/>
      <point x="178" y="-225"/>
    </contour>
  </outline>
</glyph>
<glyph name="holam" format="1">
  <advance width="0"/>
  <unicode hex="05B9"/>
  <note>
    holam
  </note>
  <outline>
    <contour>
      <point x="-80" y="1526" type="qcurve" smooth="yes"/>
      <point x="-80" y="1494"/>
      <point x="-34" y="1446"/>
      <point x="0" y="1446" type="qcurve" smooth="yes"/>
      <point x="33" y="1446"/>
      <point x="80" y="1494"/>
      <point x="80" y="1526" type="qcurve" smooth="yes"/>
      <point x="80" y="1558"/>
      <point x="32" y="1606"/>
      <point x="0" y="1606" type="qcurve" smooth="yes"/>
      <point x="-32" y="1606"/>
      <point x="-80" y="1558"/>
    </contour>
  </outline>
</glyph>
<glyph name="lowerdot" format="1">
  <advance width="0"/>
  <unicode hex="05C5"/>
  <note>
    lowerdot
  </note>
  <outline>
    <contour>
      <point x="-80" y="-328" type="qcurve" smooth="yes"/>
      <point x="-80" y="-360"/>
      <point x="-32" y="-406"/>
      <point x="0" y="-406" type="qcurve" smooth="yes"/>
      <point x="32" y="-406"/>
      <point x="80" y="-360"/>
      <point x="80" y="-328" type="qcurve" smooth="yes"/>
      <point x="80" y="-296"/>
      <point x="34" y="-248"/>
      <point x="0" y="-248" type="qcurve" smooth="yes"/>
      <point x="-33" y="-248"/>
      <point x="-80" y="-295"/>
    </contour>
  </outline>
</glyph>
<glyph name="uni1D15" format="1">
  <advance width="936"/>
  <unicode hex="1D15"/>
  <note>
    uni1D15
  </note>
  <outline>
    <contour>
      <point x="845" y="1082" type="qcurve"/>
      <point x="658" y="1082" type="line"/>
      <point x="658" y="819"/>
      <point x="466" y="819" type="qcurve" smooth="yes"/>
      <point x="374" y="819"/>
      <point x="272" y="955"/>
      <point x="272" y="1082" type="qcurve"/>
      <point x="88" y="1082" type="line"/>
      <point x="88" y="953"/>
      <point x="227" y="770"/>
      <point x="348" y="741" type="qcurve"/>
      <point x="348" y="737" type="line"/>
      <point x="228" y="717"/>
      <point x="67" y="522"/>
      <point x="67" y="381" type="qcurve" smooth="yes"/>
      <point x="67" y="190"/>
      <point x="275" y="-20"/>
      <point x="468" y="-20" type="qcurve" smooth="yes"/>
      <point x="660" y="-20"/>
      <point x="868" y="188"/>
      <point x="868" y="383" type="qcurve" smooth="yes"/>
      <point x="868" y="524"/>
      <point x="715" y="717"/>
      <point x="583" y="739" type="qcurve"/>
      <point x="583" y="743" type="line"/>
      <point x="704" y="767"/>
      <point x="845" y="951"/>
    </contour>
    <contour>
      <point x="691" y="381" type="qcurve" smooth="yes"/>
      <point x="691" y="247"/>
      <point x="578" y="111"/>
      <point x="469" y="111" type="qcurve" smooth="yes"/>
      <point x="359" y="111"/>
      <point x="243" y="251"/>
      <point x="243" y="381" type="qcurve" smooth="yes"/>
      <point x="243" y="512"/>
      <point x="357" y="649"/>
      <point x="465" y="649" type="qcurve" smooth="yes"/>
      <point x="691" y="649"/>
    </contour>
  </outline>
</glyph>
<glyph name="uni1D17" format="1">
  <advance width="1139"/>
  <unicode hex="1D17"/>
  <note>
    uni1D17
  </note>
  <outline>
    <contour>
      <point x="275" y="542" type="qcurve"/>
      <point x="86" y="542" type="line"/>
      <point x="86" y="269"/>
      <point x="328" y="-20"/>
      <point x="565" y="-20" type="qcurve" smooth="yes"/>
      <point x="803" y="-20"/>
      <point x="1053" y="258"/>
      <point x="1053" y="542" type="qcurve"/>
      <point x="864" y="542" type="line"/>
      <point x="864" y="321"/>
      <point x="725" y="113"/>
      <point x="563" y="113" type="qcurve" smooth="yes"/>
      <point x="414" y="113"/>
      <point x="275" y="328"/>
    </contour>
  </outline>
</glyph>
<glyph name="uni1D3C" format="1">
  <advance width="1048"/>
  <unicode hex="1D3C"/>
  <note>
    uni1D3C
  </note>
  <outline>
    <contour>
      <point x="1001" y="992" type="qcurve" smooth="yes"/>
      <point x="1001" y="1230"/>
      <point x="746" y="1499"/>
      <point x="523" y="1499" type="qcurve" smooth="yes"/>
      <point x="297" y="1499"/>
      <point x="43" y="1231"/>
      <point x="43" y="992" type="qcurve" smooth="yes"/>
      <point x="43" y="750"/>
      <point x="298" y="476"/>
      <point x="521" y="476" type="qcurve" smooth="yes"/>
      <point x="746" y="476"/>
      <point x="1001" y="754"/>
    </contour>
    <contour>
      <point x="857" y="992" type="qcurve" smooth="yes"/>
      <point x="857" y="799"/>
      <point x="682" y="591"/>
      <point x="521" y="591" type="qcurve" smooth="yes"/>
      <point x="364" y="591"/>
      <point x="186" y="807"/>
      <point x="186" y="992" type="qcurve" smooth="yes"/>
      <point x="186" y="1179"/>
      <point x="364" y="1383"/>
      <point x="523" y="1383" type="qcurve" smooth="yes"/>
      <point x="678" y="1383"/>
      <point x="857" y="1178"/>
    </contour>
  </outline>
</glyph>
<glyph name="uni1D3D" format="1">
  <advance width="783"/>
  <unicode hex="1D3D"/>
  <note>
    uni1D3D
  </note>
  <outline>
    <contour>
      <point x="392" y="1220" type="qcurve" smooth="yes"/>
      <point x="303" y="1220"/>
      <point x="209" y="1342"/>
      <point x="209" y="1460" type="qcurve"/>
      <point x="81" y="1460" type="line"/>
      <point x="81" y="1346"/>
      <point x="163" y="1189"/>
      <point x="235" y="1166" type="qcurve"/>
      <point x="148" y="1137"/>
      <point x="52" y="969"/>
      <point x="52" y="846" type="qcurve" smooth="yes"/>
      <point x="52" y="658"/>
      <point x="217" y="477"/>
      <point x="390" y="477" type="qcurve" smooth="yes"/>
      <point x="565" y="477"/>
      <point x="731" y="657"/>
      <point x="731" y="846" type="qcurve" smooth="yes"/>
      <point x="731" y="967"/>
      <point x="634" y="1136"/>
      <point x="548" y="1163" type="qcurve"/>
      <point x="619" y="1190"/>
      <point x="702" y="1352"/>
      <point x="702" y="1460" type="qcurve"/>
      <point x="573" y="1460" type="line"/>
      <point x="573" y="1348"/>
      <point x="475" y="1220"/>
    </contour>
    <contour>
      <point x="392" y="1121" type="qcurve" smooth="yes"/>
      <point x="490" y="1121"/>
      <point x="604" y="973"/>
      <point x="604" y="853" type="qcurve" smooth="yes"/>
      <point x="604" y="709"/>
      <point x="505" y="573"/>
      <point x="392" y="573" type="qcurve" smooth="yes"/>
      <point x="279" y="573"/>
      <point x="178" y="706"/>
      <point x="178" y="853" type="qcurve" smooth="yes"/>
      <point x="178" y="973"/>
      <point x="293" y="1121"/>
    </contour>
  </outline>
</glyph>
<glyph name="uni1D41" format="1">
  <advance width="879"/>
  <unicode hex="1D41"/>
  <note>
    uni1D41
  </note>
  <outline>
    <contour>
      <point x="433" y="476" type="qcurve" smooth="yes"/>
      <point x="622" y="476"/>
      <point x="838" y="685"/>
      <point x="838" y="865" type="qcurve" smooth="yes"/>
      <point x="838" y="1484" type="line"/>
      <point x="697" y="1484" type="line"/>
      <point x="697" y="872" type="line" smooth="yes"/>
      <point x="697" y="736"/>
      <point x="561" y="591"/>
      <point x="433" y="591" type="qcurve" smooth="yes"/>
      <point x="309" y="591"/>
      <point x="180" y="730"/>
      <point x="180" y="863" type="qcurve" smooth="yes"/>
      <point x="180" y="1484" type="line"/>
      <point x="39" y="1484" type="line"/>
      <point x="39" y="852" type="line" smooth="yes"/>
      <point x="39" y="677"/>
      <point x="251" y="476"/>
    </contour>
  </outline>
</glyph>
<glyph name="uni1D52" format="1">
  <advance width="773"/>
  <unicode hex="1D52"/>
  <note>
    uni1D52
  </note>
  <outline>
    <contour>
      <point x="716" y="872" type="qcurve" smooth="yes"/>
      <point x="716" y="1070"/>
      <point x="561" y="1267"/>
      <point x="389" y="1267" type="qcurve" smooth="yes"/>
      <point x="59" y="1267"/>
      <point x="59" y="872" type="qcurve" smooth="yes"/>
      <point x="59" y="671"/>
      <point x="230" y="476"/>
      <point x="384" y="476" type="qcurve" smooth="yes"/>
      <point x="716" y="476"/>
    </contour>
    <contour>
      <point x="588" y="872" type="qcurve" smooth="yes"/>
      <point x="588" y="717"/>
      <point x="493" y="570"/>
      <point x="383" y="570" type="qcurve" smooth="yes"/>
      <point x="281" y="570"/>
      <point x="187" y="722"/>
      <point x="187" y="872" type="qcurve" smooth="yes"/>
      <point x="187" y="1027"/>
      <point x="283" y="1173"/>
      <point x="391" y="1173" type="qcurve" smooth="yes"/>
      <point x="497" y="1173"/>
      <point x="588" y="1030"/>
    </contour>
  </outline>
</glyph>
<glyph name="uni1D77" format="1">
  <advance width="1139"/>
  <unicode hex="1D77"/>
  <note>
    uni1D77
  </note>
  <outline>
    <contour>
      <point x="594" y="1099" type="qcurve" smooth="yes"/>
      <point x="141" y="1099"/>
      <point x="141" y="643" type="qcurve" smooth="yes"/>
      <point x="141" y="-184" type="line" smooth="yes"/>
      <point x="141" y="-354"/>
      <point x="135" y="-408" type="qcurve"/>
      <point x="306" y="-408" type="line"/>
      <point x="316" y="-325"/>
      <point x="316" y="-223" type="qcurve"/>
      <point x="320" y="-223" type="line"/>
      <point x="366" y="-320"/>
      <point x="535" y="-425"/>
      <point x="650" y="-425" type="qcurve" smooth="yes"/>
      <point x="855" y="-425"/>
      <point x="1056" y="-152"/>
      <point x="1056" y="135" type="qcurve" smooth="yes"/>
      <point x="1056" y="418"/>
      <point x="869" y="682"/>
      <point x="670" y="682" type="qcurve" smooth="yes"/>
      <point x="428" y="682"/>
      <point x="323" y="473" type="qcurve"/>
      <point x="320" y="473" type="line"/>
      <point x="320" y="647" type="line" smooth="yes"/>
      <point x="320" y="962"/>
      <point x="589" y="962" type="qcurve" smooth="yes"/>
      <point x="689" y="962"/>
      <point x="812" y="881"/>
      <point x="830" y="806" type="qcurve"/>
      <point x="1011" y="832" type="line"/>
      <point x="981" y="960"/>
      <point x="771" y="1099"/>
    </contour>
    <contour>
      <point x="320" y="133" type="qcurve" smooth="yes"/>
      <point x="320" y="262"/>
      <point x="392" y="449"/>
      <point x="524" y="549"/>
      <point x="609" y="549" type="qcurve" smooth="yes"/>
      <point x="752" y="549"/>
      <point x="870" y="355"/>
      <point x="870" y="133" type="qcurve" smooth="yes"/>
      <point x="870" y="-91"/>
      <point x="744" y="-291"/>
      <point x="606" y="-291" type="qcurve" smooth="yes"/>
      <point x="523" y="-291"/>
      <point x="392" y="-190"/>
      <point x="320" y="1"/>
    </contour>
  </outline>
</glyph>
<glyph name="uni1D7F" format="1">
  <advance width="1164"/>
  <unicode hex="1D7F"/>
  <note>
    uni1D7F
  </note>
  <outline>
    <contour>
      <point x="10" y="617" type="line"/>
      <point x="10" y="484" type="line"/>
      <point x="84" y="484" type="line"/>
      <point x="84" y="448" type="line" smooth="yes"/>
      <point x="84" y="236"/>
      <point x="356" y="-20"/>
      <point x="581" y="-20" type="qcurve" smooth="yes"/>
      <point x="809" y="-20"/>
      <point x="1079" y="239"/>
      <point x="1079" y="448" type="qcurve" smooth="yes"/>
      <point x="1079" y="466" type="line"/>
      <point x="1078" y="484" type="line"/>
      <point x="1154" y="484" type="line"/>
      <point x="1154" y="617" type="line"/>
      <point x="1059" y="617" type="line"/>
      <point x="1037" y="699"/>
      <point x="945" y="842"/>
      <point x="842" y="943" type="qcurve"/>
      <point x="1107" y="943" type="line"/>
      <point x="1107" y="1082" type="line"/>
      <point x="652" y="1082" type="line"/>
      <point x="652" y="943" type="line"/>
      <point x="730" y="905"/>
      <point x="849" y="738"/>
      <point x="876" y="617" type="qcurve"/>
      <point x="287" y="617" type="line"/>
      <point x="314" y="739"/>
      <point x="433" y="905"/>
      <point x="511" y="943" type="qcurve"/>
      <point x="511" y="1082" type="line"/>
      <point x="57" y="1082" type="line"/>
      <point x="57" y="943" type="line"/>
      <point x="321" y="943" type="line"/>
      <point x="216" y="841"/>
      <point x="125" y="698"/>
      <point x="103" y="617" type="qcurve"/>
    </contour>
    <contour>
      <point x="581" y="123" type="qcurve" smooth="yes"/>
      <point x="438" y="123"/>
      <point x="271" y="313"/>
      <point x="271" y="472" type="qcurve" smooth="yes"/>
      <point x="271" y="484" type="line"/>
      <point x="892" y="484" type="line"/>
      <point x="892" y="472" type="line" smooth="yes"/>
      <point x="892" y="313"/>
      <point x="724" y="123"/>
    </contour>
  </outline>
</glyph>
<glyph name="uni200C" format="1">
  <advance width="0"/>
  <unicode hex="200C"/>
  <note>
    uni200C
  </note>
  <outline>
    <contour>
      <point x="42" y="1287" type="line"/>
      <point x="-42" y="1287" type="line"/>
      <point x="-42" y="-273" type="line"/>
      <point x="42" y="-273" type="line"/>
    </contour>
  </outline>
</glyph>
<glyph name="bullet" format="1">
  <advance width="717"/>
  <unicode hex="2022"/>
  <note>
    bullet
  </note>
  <outline>
    <contour>
      <point x="636" y="682" type="qcurve" smooth="yes"/>
      <point x="636" y="795"/>
      <point x="471" y="956"/>
      <point x="355" y="956" type="qcurve" smooth="yes"/>
      <point x="243" y="956"/>
      <point x="81" y="797"/>
      <point x="81" y="682" type="qcurve" smooth="yes"/>
      <point x="81" y="567"/>
      <point x="242" y="401"/>
      <point x="355" y="401" type="qcurve" smooth="yes"/>
      <point x="473" y="401"/>
      <point x="636" y="569"/>
    </contour>
  </outline>
</glyph>
<glyph name="sevensuperior" format="1">
  <advance width="682"/>
  <unicode hex="2077"/>
  <note>
    sevensuperior
  </note>
  <outline>
    <contour>
      <point x="632" y="1308" type="qcurve"/>
      <point x="632" y="1409" type="line"/>
      <point x="43" y="1409" type="line"/>
      <point x="43" y="1296" type="line"/>
      <point x="503" y="1296" type="line"/>
      <point x="333" y="1046"/>
      <point x="209" y="719"/>
      <point x="209" y="564" type="qcurve"/>
      <point x="342" y="564" type="line"/>
      <point x="342" y="679"/>
      <point x="395" y="891"/>
      <point x="503" y="1112"/>
    </contour>
  </outline>
</glyph>
<glyph name="arrowleft" format="1">
  <advance width="2048"/>
  <unicode hex="2190"/>
  <note>
    arrowleft
  </note>
  <outline>
    <contour>
      <point x="641" y="297" type="qcurve"/>
      <point x="1630" y="297" type="line"/>
      <point x="1630" y="383" type="line"/>
      <point x="641" y="383" type="line"/>
      <point x="698" y="450"/>
      <point x="760" y="580" type="qcurve"/>
      <point x="688" y="580" type="line"/>
      <point x="561" y="431"/>
      <point x="418" y="358" type="qcurve"/>
      <point x="418" y="322" type="line"/>
      <point x="561" y="249"/>
      <point x="688" y="100" type="qcurve"/>
      <point x="760" y="100" type="line"/>
      <point x="698" y="230"/>
    </contour>
  </outline>
</glyph>
<glyph name="arrowright" format="1">
  <advance width="2048"/>
  <unicode hex="2192"/>
  <note>
    arrowright
  </note>
  <outline>
    <contour>
      <point x="1407" y="383" type="qcurve"/>
      <point x="418" y="383" type="line"/>
      <point x="418" y="297" type="line"/>
      <point x="1407" y="297" type="line"/>
      <point x="1350" y="230"/>
      <point x="1288" y="100" type="qcurve"/>
      <point x="1360" y="100" type="line"/>
      <point x="1487" y="249"/>
      <point x="1630" y="322" type="qcurve"/>
      <point x="1630" y="358" type="line"/>
      <point x="1487" y="431"/>
      <point x="1360" y="580" type="qcurve"/>
      <point x="1288" y="580" type="line"/>
      <point x="1350" y="450"/>
    </contour>
  </outline>
</glyph>
<glyph name="arrowboth" format="1">
  <advance width="2048"/>
  <unicode hex="2194"/>
  <note>
    arrowboth
  </note>
  <outline>
    <contour>
      <point x="641" y="297" type="qcurve"/>
      <point x="1407" y="297" type="line"/>
      <point x="1350" y="230"/>
      <point x="1288" y="100" type="qcurve"/>
      <point x="1360" y="100" type="line"/>
      <point x="1487" y="249"/>
      <point x="1630" y="322" type="qcurve"/>
      <point x="1630" y="358" type="line"/>
      <point x="1487" y="431"/>
      <point x="1360" y="580" type="qcurve"/>
      <point x="1288" y="580" type="line"/>
      <point x="1350" y="450"/>
      <point x="1407" y="383" type="qcurve"/>
      <point x="641" y="383" type="line"/>
      <point x="698" y="450"/>
      <point x="760" y="580" type="qcurve"/>
      <point x="688" y="580" type="line"/>
      <point x="561" y="431"/>
      <point x="418" y="358" type="qcurve"/>
      <point x="418" y="322" type="line"/>
      <point x="561" y="249"/>
      <point x="688" y="100" type="qcurve"/>
      <point x="760" y="100" type="line"/>
      <point x="698" y="230"/>
    </contour>
  </outline>
</glyph>
<glyph name="S_BE" format="1">
  <advance width="1140"/>
  <note>
    S_BE
  </note>
  <outline>
    <contour>
      <point x="864" y="471" type="qcurve" smooth="yes"/>
      <point x="864" y="393"/>
      <point x="833" y="262"/>
      <point x="764" y="167"/>
      <point x="652" y="113"/>
      <point x="571" y="113" type="qcurve" smooth="yes"/>
      <point x="494" y="113"/>
      <point x="383" y="168"/>
      <point x="310" y="264"/>
      <point x="275" y="395"/>
      <point x="275" y="471" type="qcurve" smooth="yes"/>
      <point x="275" y="562"/>
      <point x="335" y="708"/>
      <point x="437" y="822"/>
      <point x="571" y="903"/>
      <point x="644" y="929" type="qcurve"/>
      <point x="670" y="902"/>
      <point x="746" y="816"/>
      <point x="815" y="701"/>
      <point x="864" y="556"/>
    </contour>
    <contour>
      <point x="466" y="1359" type="line"/>
      <point x="741" y="1514"/>
      <point x="973" y="1431" type="qcurve"/>
      <point x="973" y="1563" type="line"/>
      <point x="671" y="1647"/>
      <point x="265" y="1459" type="qcurve"/>
      <point x="265" y="1340" type="line"/>
      <point x="551" y="1026" type="line"/>
      <point x="455" y="993"/>
      <point x="286" y="896"/>
      <point x="159" y="761"/>
      <point x="86" y="585"/>
      <point x="86" y="473" type="qcurve" smooth="yes"/>
      <point x="86" y="358"/>
      <point x="152" y="175"/>
      <point x="277" y="48"/>
      <point x="457" y="-20"/>
      <point x="571" y="-20" type="qcurve" smooth="yes"/>
      <point x="686" y="-20"/>
      <point x="866" y="52"/>
      <point x="989" y="183"/>
      <point x="1053" y="365"/>
      <point x="1053" y="475" type="qcurve" smooth="yes"/>
      <point x="1053" y="572"/>
      <point x="1004" y="731"/>
      <point x="925" y="865"/>
      <point x="874" y="923" type="qcurve" smooth="yes"/>
      <point x="859" y="940"/>
      <point x="769" y="1036" type="qcurve" smooth="yes"/>
    </contour>
  </outline>
</glyph>
<glyph name="commaaccentrotate" format="1">
  <advance width="455"/>
  <note>
    commaaccentrotate
  </note>
  <outline>
    <contour>
      <point x="130" y="1317" type="qcurve" smooth="yes"/>
      <point x="130" y="1211" type="line"/>
      <point x="325" y="1211" type="line"/>
      <point x="325" y="1378" type="line"/>
      <point x="237" y="1378" type="line"/>
      <point x="237" y="1468"/>
      <point x="331" y="1568" type="qcurve"/>
      <point x="214" y="1568" type="line"/>
      <point x="174" y="1521"/>
      <point x="130" y="1404"/>
    </contour>
  </outline>
</glyph>
